<mxfile host="Electron" modified="2024-05-10T15:13:08.916Z" agent="Mozilla/5.0 (Windows NT 10.0; Win64; x64) AppleWebKit/537.36 (KHTML, like Gecko) draw.io/24.2.5 Chrome/120.0.6099.109 Electron/28.1.0 Safari/537.36" etag="rWmRsBl42AUdqAAavxtD" version="24.2.5" type="device">
  <diagram name="第 1 页" id="6bvkzeyF2wZ9_rzcafc4">
    <mxGraphModel dx="1098" dy="820" grid="1" gridSize="10" guides="1" tooltips="1" connect="1" arrows="1" fold="1" page="1" pageScale="1" pageWidth="827" pageHeight="1169" math="0" shadow="0">
      <root>
        <mxCell id="0" />
        <mxCell id="1" parent="0" />
        <mxCell id="86nyHkzidAHu_t4PDTEV-12" style="edgeStyle=orthogonalEdgeStyle;rounded=0;orthogonalLoop=1;jettySize=auto;html=1;entryX=0.5;entryY=0;entryDx=0;entryDy=0;" edge="1" parent="1" source="86nyHkzidAHu_t4PDTEV-1" target="86nyHkzidAHu_t4PDTEV-2">
          <mxGeometry relative="1" as="geometry">
            <mxPoint x="473" y="240" as="targetPoint" />
          </mxGeometry>
        </mxCell>
        <mxCell id="86nyHkzidAHu_t4PDTEV-1" value="&lt;div&gt;Touching Wall&lt;/div&gt;&lt;div&gt;Decorator Node&lt;/div&gt;" style="rounded=0;whiteSpace=wrap;html=1;fillColor=#dae8fc;strokeColor=#6c8ebf;" vertex="1" parent="1">
          <mxGeometry x="413" y="150" width="120" height="60" as="geometry" />
        </mxCell>
        <mxCell id="86nyHkzidAHu_t4PDTEV-13" style="edgeStyle=orthogonalEdgeStyle;rounded=0;orthogonalLoop=1;jettySize=auto;html=1;" edge="1" parent="1" source="86nyHkzidAHu_t4PDTEV-2" target="86nyHkzidAHu_t4PDTEV-10">
          <mxGeometry relative="1" as="geometry" />
        </mxCell>
        <mxCell id="86nyHkzidAHu_t4PDTEV-15" style="edgeStyle=orthogonalEdgeStyle;rounded=0;orthogonalLoop=1;jettySize=auto;html=1;" edge="1" parent="1" source="86nyHkzidAHu_t4PDTEV-2" target="86nyHkzidAHu_t4PDTEV-4">
          <mxGeometry relative="1" as="geometry" />
        </mxCell>
        <mxCell id="86nyHkzidAHu_t4PDTEV-2" value="Selector Node" style="rounded=0;whiteSpace=wrap;html=1;" vertex="1" parent="1">
          <mxGeometry x="413" y="250" width="120" height="60" as="geometry" />
        </mxCell>
        <mxCell id="86nyHkzidAHu_t4PDTEV-17" style="edgeStyle=orthogonalEdgeStyle;rounded=0;orthogonalLoop=1;jettySize=auto;html=1;" edge="1" parent="1" source="86nyHkzidAHu_t4PDTEV-3" target="86nyHkzidAHu_t4PDTEV-5">
          <mxGeometry relative="1" as="geometry" />
        </mxCell>
        <mxCell id="86nyHkzidAHu_t4PDTEV-19" style="edgeStyle=orthogonalEdgeStyle;rounded=0;orthogonalLoop=1;jettySize=auto;html=1;entryX=0.5;entryY=0;entryDx=0;entryDy=0;" edge="1" parent="1" source="86nyHkzidAHu_t4PDTEV-3" target="86nyHkzidAHu_t4PDTEV-7">
          <mxGeometry relative="1" as="geometry" />
        </mxCell>
        <mxCell id="86nyHkzidAHu_t4PDTEV-21" style="edgeStyle=orthogonalEdgeStyle;rounded=0;orthogonalLoop=1;jettySize=auto;html=1;entryX=0.5;entryY=0;entryDx=0;entryDy=0;" edge="1" parent="1" source="86nyHkzidAHu_t4PDTEV-3" target="86nyHkzidAHu_t4PDTEV-9">
          <mxGeometry relative="1" as="geometry" />
        </mxCell>
        <mxCell id="86nyHkzidAHu_t4PDTEV-3" value="Selector" style="rounded=0;whiteSpace=wrap;html=1;" vertex="1" parent="1">
          <mxGeometry x="643" y="460" width="120" height="60" as="geometry" />
        </mxCell>
        <mxCell id="86nyHkzidAHu_t4PDTEV-16" style="edgeStyle=orthogonalEdgeStyle;rounded=0;orthogonalLoop=1;jettySize=auto;html=1;entryX=0.5;entryY=0;entryDx=0;entryDy=0;" edge="1" parent="1" source="86nyHkzidAHu_t4PDTEV-4" target="86nyHkzidAHu_t4PDTEV-3">
          <mxGeometry relative="1" as="geometry" />
        </mxCell>
        <mxCell id="86nyHkzidAHu_t4PDTEV-4" value="Check Grab Input&lt;div&gt;Decorator Node&lt;/div&gt;" style="rounded=0;whiteSpace=wrap;html=1;" vertex="1" parent="1">
          <mxGeometry x="643" y="370" width="120" height="60" as="geometry" />
        </mxCell>
        <mxCell id="86nyHkzidAHu_t4PDTEV-18" style="edgeStyle=orthogonalEdgeStyle;rounded=0;orthogonalLoop=1;jettySize=auto;html=1;entryX=0.5;entryY=0;entryDx=0;entryDy=0;" edge="1" parent="1" source="86nyHkzidAHu_t4PDTEV-5" target="86nyHkzidAHu_t4PDTEV-6">
          <mxGeometry relative="1" as="geometry" />
        </mxCell>
        <mxCell id="86nyHkzidAHu_t4PDTEV-5" value="Check neg-y Input&lt;div&gt;Decorator Node&lt;/div&gt;" style="rounded=0;whiteSpace=wrap;html=1;" vertex="1" parent="1">
          <mxGeometry x="493" y="540" width="120" height="60" as="geometry" />
        </mxCell>
        <mxCell id="86nyHkzidAHu_t4PDTEV-6" value="&lt;div&gt;Wall Slide&lt;/div&gt;&lt;div&gt;Action Node&lt;/div&gt;" style="rounded=0;whiteSpace=wrap;html=1;" vertex="1" parent="1">
          <mxGeometry x="493" y="630" width="120" height="60" as="geometry" />
        </mxCell>
        <mxCell id="86nyHkzidAHu_t4PDTEV-20" style="edgeStyle=orthogonalEdgeStyle;rounded=0;orthogonalLoop=1;jettySize=auto;html=1;entryX=0.5;entryY=0;entryDx=0;entryDy=0;" edge="1" parent="1" source="86nyHkzidAHu_t4PDTEV-7" target="86nyHkzidAHu_t4PDTEV-8">
          <mxGeometry relative="1" as="geometry" />
        </mxCell>
        <mxCell id="86nyHkzidAHu_t4PDTEV-7" value="Check pos-y Input&lt;div&gt;Decorator Node&lt;/div&gt;" style="rounded=0;whiteSpace=wrap;html=1;" vertex="1" parent="1">
          <mxGeometry x="643" y="540" width="120" height="60" as="geometry" />
        </mxCell>
        <mxCell id="86nyHkzidAHu_t4PDTEV-8" value="&lt;div&gt;Wall Climb&lt;/div&gt;&lt;div&gt;Action Node&lt;/div&gt;" style="rounded=0;whiteSpace=wrap;html=1;" vertex="1" parent="1">
          <mxGeometry x="643" y="630" width="120" height="60" as="geometry" />
        </mxCell>
        <mxCell id="86nyHkzidAHu_t4PDTEV-9" value="&lt;div&gt;Wall Grab&lt;/div&gt;&lt;div&gt;Action Node&lt;/div&gt;" style="rounded=0;whiteSpace=wrap;html=1;" vertex="1" parent="1">
          <mxGeometry x="783" y="540" width="120" height="60" as="geometry" />
        </mxCell>
        <mxCell id="86nyHkzidAHu_t4PDTEV-14" style="edgeStyle=orthogonalEdgeStyle;rounded=0;orthogonalLoop=1;jettySize=auto;html=1;entryX=0.5;entryY=0;entryDx=0;entryDy=0;" edge="1" parent="1" source="86nyHkzidAHu_t4PDTEV-10" target="86nyHkzidAHu_t4PDTEV-11">
          <mxGeometry relative="1" as="geometry" />
        </mxCell>
        <mxCell id="86nyHkzidAHu_t4PDTEV-10" value="&lt;div&gt;Ledge Detected&lt;/div&gt;&lt;div&gt;Decorator Node&lt;/div&gt;" style="rounded=0;whiteSpace=wrap;html=1;" vertex="1" parent="1">
          <mxGeometry x="180" y="370" width="120" height="60" as="geometry" />
        </mxCell>
        <mxCell id="86nyHkzidAHu_t4PDTEV-11" value="&lt;div&gt;Ledge Climb&lt;/div&gt;&lt;div&gt;Action Node&lt;/div&gt;" style="rounded=0;whiteSpace=wrap;html=1;" vertex="1" parent="1">
          <mxGeometry x="180" y="480" width="120" height="60" as="geometry" />
        </mxCell>
      </root>
    </mxGraphModel>
  </diagram>
</mxfile>
